<svg xmlns="http://www.w3.org/2000/svg" aria-hidden="true" style="position:absolute;width:0;height:0;overflow:hidden">
  <defs>
    <symbol id="icon-add" viewBox="0 0 32 32">
      <path d="M8 15.143a.857.857 0 0 0 0 1.714h16a.857.857 0 0 0 0-1.714z"/>
      <path d="M16 7.143a.857.857 0 0 0-.857.857v16a.857.857 0 0 0 1.714 0V8A.857.857 0 0 0 16 7.143z"/>
    </symbol>
    <symbol id="icon-arrow-angle" viewBox="0 0 32 32">
      <path d="M12.569 7.127a.857.857 0 0 0 0 1.714h10.589V19.43a.857.857 0 0 0 1.714 0V7.984a.857.857 0 0 0-.857-.857z"/>
      <path d="M23.855 7.288h-.002a.857.857 0 0 0-.605.25L7.382 23.406a.854.854 0 0 0 0 1.212.854.854 0 0 0 1.212 0L24.462 8.75a.854.854 0 0 0 0-1.212.857.857 0 0 0-.605-.25h-.002z"/>
    </symbol>
    <symbol id="icon-arrow-left" viewBox="0 0 32 32">
      <path d="m12.288 7.434-8.094 8.094a.663.663 0 0 0 0 .942l8.094 8.094a.663.663 0 0 0 .942 0 .666.666 0 0 0 0-.944l-7.622-7.622 7.622-7.622a.663.663 0 0 0 0-.942.663.663 0 0 0-.942 0z"/>
      <path d="M4.892 15.332a.667.667 0 1 0 0 1.334h22.441a.667.667 0 1 0 0-1.334z"/>
    </symbol>
    <symbol id="icon-arrow-right" viewBox="0 0 30 32">
      <path d="M18.107 7.441a.94.94 0 0 0-.665 1.606l6.952 6.952-6.952 6.952a.94.94 0 0 0 0 1.33.94.94 0 0 0 1.33 0l7.618-7.618a.94.94 0 0 0 0-1.33l-7.618-7.618a.94.94 0 0 0-.665-.276z"/>
      <path d="M4.393 15.059a.94.94 0 1 0 0 1.882h21.118a.94.94 0 1 0 0-1.882z"/>
    </symbol>
    <symbol id="icon-arrow-top" viewBox="0 0 32 32">
      <path d="m15.293 3.961-8.094 8.09a.997.997 0 0 0 0 1.418.997.997 0 0 0 1.414 0L16 6.082l7.387 7.387a.997.997 0 0 0 1.414 0 .997.997 0 0 0 0-1.418l-8.094-8.09a.997.997 0 0 0-1.414 0z"/>
      <path d="M16 3.895a1 1 0 0 0-1 1v22.438a1 1 0 0 0 2 0V4.895a1 1 0 0 0-1-1z"/>
    </symbol>
    <symbol id="icon-call" viewBox="0 0 31 32">
      <path d="M7.155 2.24c-1.211 0-2.37.537-3.325 1.473-.767.726-1.341 1.561-1.7 2.473v.003a7.59 7.59 0 0 0-.53 2.823c0 1.479.343 3.005.998 4.56v.003c.647 1.524 1.528 3.043 2.612 4.55l.005.005a37.297 37.297 0 0 0 3.665 4.295l.002.003.002.005a37.824 37.824 0 0 0 4.31 3.678c1.512 1.101 3.047 1.984 4.593 2.642 1.569.669 3.091 1.01 4.547 1.01a7.407 7.407 0 0 0 2.863-.56h.003c.919-.378 1.735-.973 2.442-1.753a6.252 6.252 0 0 0 1.027-1.54 4.235 4.235 0 0 0 .413-1.805 3.64 3.64 0 0 0-.275-1.355l-.005-.015-.008-.015a2.958 2.958 0 0 0-1.027-1.215l-.003-.003-4.25-3.017a5.861 5.861 0 0 0-1.073-.593 3.025 3.025 0 0 0-1.143-.24c-.49 0-.971.157-1.383.402a4.816 4.816 0 0 0-1.128.865l-.88.87-.047-.02c-.341-.181-.845-.527-1.473-1.058v.003a37.487 37.487 0 0 1-1.97-1.823l-.005-.005-.008-.008a42.815 42.815 0 0 1-1.795-1.957l-.008-.01c-.526-.623-.885-1.131-1.062-1.453l-.015-.04.89-.925-.015.012c.35-.35.643-.711.865-1.1a2.72 2.72 0 0 0 .402-1.395c0-.411-.102-.795-.258-1.158a5.362 5.362 0 0 0-.615-1.08L9.83 3.594a3.08 3.08 0 0 0-1.238-1.032A3.358 3.358 0 0 0 7.15 2.24zm0 1.92c.221 0 .442.048.622.135l.005.005.008.003c.197.091.339.201.47.39l.002.005 2.977 4.195c.195.271.321.501.402.7l.002.008.005.008c.075.174.1.328.1.402a.759.759 0 0 1-.127.41l-.01.012-.008.012c-.11.195-.3.442-.56.703l-.005.008-.967 1.005a1.779 1.779 0 0 0-.485 1.19c0 .182.028.37.068.527l.012.053.02.053c.057.152.095.237.09.223l.027.08.04.075c.284.521.712 1.105 1.3 1.8l.005.003.002.005a44.797 44.797 0 0 0 1.897 2.067l.013.013c.7.687 1.381 1.329 2.085 1.927h.003c.701.593 1.293 1.015 1.823 1.295l.045.023.047.02c.003.001.087.041.207.093l.02.01.023.008c.234.088.469.113.655.113.443 0 .92-.215 1.205-.5l.973-.96c.275-.275.519-.457.688-.545l.027-.013.027-.017c.173-.105.269-.13.41-.13.108 0 .232.019.418.095.199.081.436.213.718.405l4.232 3.005c.211.146.298.262.363.405.089.227.133.408.133.622 0 .319-.071.649-.23.985a4.291 4.291 0 0 1-.712 1.07c-.546.602-1.112 1.005-1.753 1.267l-.003.003h-.003c-.65.271-1.35.412-2.128.412-1.155 0-2.42-.272-3.795-.858-1.398-.596-2.808-1.403-4.215-2.428a35.88 35.88 0 0 1-4.088-3.49 35.338 35.338 0 0 1-3.467-4.065l-.003-.003c-1.013-1.409-1.819-2.806-2.4-4.172-.574-1.363-.848-2.631-.848-3.815 0-.757.133-1.464.393-2.112v-.003l.002-.003c.254-.646.653-1.238 1.238-1.79l.015-.015c.682-.671 1.308-.928 1.987-.928z"/>
    </symbol>
    <symbol id="icon-close" viewBox="0 0 32 32">
      <path d="M9.334 8.134h-.003a1.196 1.196 0 0 0-.847 2.046l5.819 5.819-5.819 5.819a1.196 1.196 0 0 0 0 1.696 1.196 1.196 0 0 0 1.696 0l5.819-5.819 5.819 5.819a1.196 1.196 0 0 0 1.696 0 1.196 1.196 0 0 0 0-1.696l-5.819-5.819 5.819-5.819a1.196 1.196 0 0 0 0-1.696 1.196 1.196 0 0 0-1.696 0l-5.819 5.819-5.819-5.819a1.197 1.197 0 0 0-.847-.35z"/>
    </symbol>
    <symbol id="icon-facebook" viewBox="0 0 32 32">
      <path d="M18.667 7c-2.776 0-5 2.224-5 5v3.401h-1.266c-.3 0-.705.088-1.008.391S11 16.5 11 16.8v2.534c0 .3.091.705.393 1.008s.708.393 1.008.393h1.266v9.599h6V20.6h1.932c.4 0 .548-.093.766-.224.109-.065.222-.145.346-.289s.289-.386.289-.753l-.021.206.555-2.635v-.104c0-.3-.059-.609-.268-.922s-.666-.612-1.133-.612h-2.466v-2.266h2.599c.3 0 .705-.091 1.008-.393s.393-.708.393-1.008V8.402c0-.3-.091-.705-.393-1.008s-.708-.393-1.008-.393zm0 2h3v2h-2.599c-.3 0-.705.091-1.008.393s-.393.708-.393 1.008v4.865h3.747l-.281 1.333h-3.466v9.734h-2v-9.599H13v-1.333h2.667V12c0-1.757 1.243-3 3-3z"/>
      <path d="M12 1.667c-3.467 0-6.113.696-7.875 2.458S1.667 8.533 1.667 12v8c0 3.467.696 6.113 2.458 7.875S8.533 30.333 12 30.333h8c3.467 0 6.113-.696 7.875-2.458s2.458-4.408 2.458-7.875v-8c0-3.467-.696-6.113-2.458-7.875S23.467 1.667 20 1.667zm0 2h8c3.2 0 5.22.637 6.458 1.875S28.333 8.8 28.333 12v8c0 3.2-.637 5.22-1.875 6.458S23.2 28.333 20 28.333h-8c-3.2 0-5.22-.637-6.458-1.875S3.667 23.2 3.667 20v-8c0-3.2.637-5.22 1.875-6.458S8.8 3.667 12 3.667z"/>
    </symbol>
    <symbol id="icon-innovation" viewBox="0 0 32 32">
      <path d="M12.799 4.333c-2.8 0-4.978.564-6.44 2.026s-2.026 3.64-2.026 6.44V19.2c0 2.8.564 4.978 2.026 6.44s3.64 2.026 6.44 2.026H19.2c2.8 0 4.978-.564 6.44-2.026s2.026-3.64 2.026-6.44v-6.401c0-2.8-.564-4.978-2.026-6.44S22 4.333 19.2 4.333zm0 2H19.2c2.533 0 4.088.502 5.026 1.44s1.44 2.493 1.44 5.026V19.2c0 2.533-.502 4.088-1.44 5.026s-2.493 1.44-5.026 1.44h-6.401c-2.533 0-4.088-.502-5.026-1.44s-1.44-2.493-1.44-5.026v-6.401c0-2.533.502-4.088 1.44-5.026s2.493-1.44 5.026-1.44z"/>
      <path d="M14 8.333c-1.8 0-3.28.363-4.292 1.375S8.333 12.2 8.333 14v4c0 1.8.363 3.28 1.375 4.292S12.2 23.667 14 23.667h4c1.8 0 3.28-.363 4.292-1.375S23.667 19.8 23.667 18v-4c0-1.8-.363-3.28-1.375-4.292S19.8 8.333 18 8.333zm0 2h4c1.533 0 2.387.304 2.875.792s.792 1.342.792 2.875v4c0 1.533-.304 2.387-.792 2.875s-1.342.792-2.875.792h-4c-1.533 0-2.387-.304-2.875-.792s-.792-1.342-.792-2.875v-4c0-1.533.304-2.387.792-2.875s1.342-.792 2.875-.792zM10.68 1.667a1 1 0 0 0-1 1v2.667a1 1 0 0 0 2 0V2.667a1 1 0 0 0-1-1zM16 1.667a1 1 0 0 0-1 1v2.667a1 1 0 0 0 2 0V2.667a1 1 0 0 0-1-1zM21.333 1.667a1 1 0 0 0-1 1v2.667a1 1 0 0 0 2 0V2.667a1 1 0 0 0-1-1zM26.667 9.667a1 1 0 0 0 0 2h2.667a1 1 0 0 0 0-2zM26.667 15a1 1 0 0 0 0 2h2.667a1 1 0 0 0 0-2zM26.667 20.333a1 1 0 0 0 0 2h2.667a1 1 0 0 0 0-2zM21.333 25.667a1 1 0 0 0-1 1v2.667a1 1 0 0 0 2 0v-2.667a1 1 0 0 0-1-1zM16.013 25.667a1 1 0 0 0-1 1v2.667a1 1 0 0 0 2 0v-2.667a1 1 0 0 0-1-1zM10.68 25.667a1 1 0 0 0-1 1v2.667a1 1 0 0 0 2 0v-2.667a1 1 0 0 0-1-1zM2.667 9.667a1 1 0 0 0 0 2h2.667a1 1 0 0 0 0-2zM2.667 15a1 1 0 0 0 0 2h2.667a1 1 0 0 0 0-2zM2.667 20.333a1 1 0 0 0 0 2h2.667a1 1 0 0 0 0-2z"/>
      <path d="M16.497 12.065a1.002 1.002 0 0 0-1.362.365l-.003.005-1.25 2.182c-.26.446-.374 1.08-.065 1.62s.917.763 1.435.763h.779l-.898 1.57a1.002 1.002 0 0 0 .365 1.362l.005.003a1.002 1.002 0 0 0 1.362-.365l.003-.005 1.25-2.182c.26-.446.374-1.08.065-1.62S17.266 15 16.748 15h-.779l.898-1.57a1.002 1.002 0 0 0-.365-1.362l-.005-.003z"/>
    </symbol>
    <symbol id="icon-instagram" viewBox="0 0 32 32">
      <path d="M12 1.667c-3.467 0-6.113.696-7.875 2.458S1.667 8.533 1.667 12v8c0 3.467.696 6.113 2.458 7.875S8.533 30.333 12 30.333h8c3.467 0 6.113-.696 7.875-2.458s2.458-4.408 2.458-7.875v-8c0-3.467-.696-6.113-2.458-7.875S23.467 1.667 20 1.667zm0 2h8c3.2 0 5.22.637 6.458 1.875S28.333 8.8 28.333 12v8c0 3.2-.637 5.22-1.875 6.458S23.2 28.333 20 28.333h-8c-3.2 0-5.22-.637-6.458-1.875S3.667 23.2 3.667 20v-8c0-3.2.637-5.22 1.875-6.458S8.8 3.667 12 3.667z"/>
      <path d="M16 10.333c-3.118 0-5.667 2.549-5.667 5.667s2.549 5.667 5.667 5.667 5.667-2.549 5.667-5.667-2.549-5.667-5.667-5.667zm0 2c2.037 0 3.667 1.63 3.667 3.667s-1.63 3.667-3.667 3.667-3.667-1.63-3.667-3.667 1.63-3.667 3.667-3.667zM23.516 8a1.333 1.333 0 0 0 0 2.666h.016a1.333 1.333 0 0 0 0-2.666z"/>
    </symbol>
    <symbol id="icon-logo" viewBox="0 0 55 32">
      <path fill="#173d33" d="M37.919 22.771c-.115-.273-9.583-18.774-9.738-19.029-.327-.772-.812-1.47-1.425-2.049S25.416.665 24.62.376a6.266 6.266 0 0 0-4.925.28 6.159 6.159 0 0 0-1.968 1.55c-.541.645-.942 1.392-1.177 2.197a6.012 6.012 0 0 0 .641 4.822c.115.273 9.177 17.981 9.332 18.236.116.274.251.539.406.793.327.772.812 1.47 1.425 2.049s1.34 1.028 2.136 1.317a6.266 6.266 0 0 0 4.925-.28c.758-.378 1.427-.906 1.968-1.55s.942-1.393 1.177-2.197a6.01 6.01 0 0 0-.641-4.822z" style="fill:var(--color1, #173d33)"/>
      <path fill="#97d28b" d="M26.986 10.252c.58-.61 1.027-1.331 1.312-2.119a6.023 6.023 0 0 0-1.927-6.775C25.712.831 24.95.444 24.132.221S22.459-.057 21.619.06c-.84.117-1.646.404-2.369.842s-1.346 1.019-1.831 1.705c-.204.214-15.577 18.897-15.748 19.139-.58.61-1.027 1.331-1.312 2.119a6.006 6.006 0 0 0 .335 4.851c.391.742.933 1.397 1.592 1.924s1.421.914 2.239 1.137c.817.223 1.673.278 2.513.161s1.646-.404 2.369-.842a6.135 6.135 0 0 0 1.831-1.705c.204-.214 15.577-18.897 15.748-19.139zM53.439 10.252c.58-.61 1.027-1.331 1.312-2.119a6.006 6.006 0 0 0-.335-4.851 6.104 6.104 0 0 0-1.592-1.924C52.165.831 51.403.444 50.585.221S48.912-.057 48.072.06c-.84.117-1.646.404-2.369.842s-1.346 1.019-1.831 1.705c-.204.214-15.577 18.897-15.748 19.138-.58.61-1.027 1.332-1.312 2.119a6.004 6.004 0 0 0 .335 4.851 6.104 6.104 0 0 0 1.592 1.924c.659.527 1.421.914 2.239 1.137s1.673.278 2.513.161c.84-.117 1.646-.404 2.369-.842s1.346-1.019 1.831-1.705c.204-.214 15.577-18.897 15.748-19.139z" style="fill:var(--color2, #97d28b)"/>
    </symbol>
    <symbol id="icon-map" viewBox="0 0 31 32">
      <path d="M10.94 3.913a3.498 3.498 0 0 0-1.647.462l-.002.002L3.748 7.55a3.491 3.491 0 0 0-1.775 3.047v12.455c0 1.443.546 2.694 1.603 3.308s2.412.468 3.66-.247v.003l3.005-1.715c.279-.159 1.227-.189 1.51-.045l.005.005 6.72 3.365.004.003.004.002c1.06.52 2.283.496 3.317-.093l.003-.003 5.543-3.172.005-.005a3.52 3.52 0 0 0 1.77-3.055V8.948c0-1.443-.549-2.694-1.605-3.308s-2.412-.468-3.66.247L20.852 7.6c-.279.159-1.225.189-1.508.045l-.004-.003-.004-.002-6.72-3.353-.004-.003-.004-.002a3.58 3.58 0 0 0-1.668-.37zm.822 2.095 6.707 3.348h.005l.003.002a3.478 3.478 0 0 0 3.322-.088l3.008-1.715.003-.003c.852-.488 1.41-.446 1.742-.253s.648.659.648 1.647v12.455c0 .358-.493 1.207-.813 1.395l-5.538 3.17c-.271.154-1.226.183-1.523.038l-6.705-3.36a3.48 3.48 0 0 0-3.33.085h-.002l-3.008 1.715-.002.002c-.852.488-1.407.446-1.74.252s-.647-.659-.647-1.648V10.595c0-.349.482-1.194.808-1.38l5.54-3.172c.271-.154 1.226-.183 1.522-.037z"/>
      <path d="M10.957 4.8a.96.96 0 0 0-.96.96V22.4a.96.96 0 0 0 1.92 0V5.76a.96.96 0 0 0-.96-.96zM20.135 8.152a.96.96 0 0 0-.96.96V26.24a.96.96 0 0 0 1.92 0V9.112a.96.96 0 0 0-.96-.96z"/>
    </symbol>
    <symbol id="icon-menu" viewBox="0 0 30 32">
      <path d="M3.765 8.783a.94.94 0 1 0 0 1.882h22.588a.94.94 0 1 0 0-1.882zM3.765 15.059a.94.94 0 1 0 0 1.882h22.588a.94.94 0 1 0 0-1.882zM3.765 21.331a.94.94 0 1 0 0 1.882h22.588a.94.94 0 1 0 0-1.882z"/>
    </symbol>
    <symbol id="icon-minus" viewBox="0 0 32 32">
      <path d="M8 15.143a.857.857 0 0 0 0 1.714h16a.857.857 0 0 0 0-1.714z"/>
    </symbol>
    <symbol id="icon-openness" viewBox="0 0 32 32">
      <path d="M22.667 3a1 1 0 0 0 0 2H27v4.333a1 1 0 0 0 2 0V4a1 1 0 0 0-1-1z"/>
      <path d="M28 3h-.002a.994.994 0 0 0-.706.292l-8 8a.996.996 0 0 0 0 1.416.996.996 0 0 0 1.416 0l8-8a.996.996 0 0 0 0-1.416.998.998 0 0 0-.706-.292h-.003zM4 21.667a1 1 0 0 0-1 1V28a1 1 0 0 0 1 1h5.333a1 1 0 0 0 0-2H5v-4.333a1 1 0 0 0-1-1z"/>
      <path d="M12 19h-.002a.994.994 0 0 0-.706.292l-8 8a.996.996 0 0 0 0 1.416.996.996 0 0 0 1.416 0l8-8a.996.996 0 0 0 0-1.416.998.998 0 0 0-.706-.292h-.003zM16 1.667C8.099 1.667 1.667 8.099 1.667 16c0 .988.1 1.946.286 2.865a1.002 1.002 0 0 0 1.186.78l-.006.001a1.002 1.002 0 0 0 .78-1.184l.001.006a12.424 12.424 0 0 1-.247-2.469A12.323 12.323 0 0 1 16 3.666c.852 0 1.695.087 2.497.247a.999.999 0 0 0 1.176-.777l.001-.006a.999.999 0 0 0-.777-1.176l-.006-.001A14.778 14.778 0 0 0 16 1.667zM28.87 12.352a1.002 1.002 0 0 0-.782 1.183l-.001-.006c.161.805.247 1.633.247 2.471a12.323 12.323 0 0 1-12.333 12.333c-.852 0-1.695-.087-2.497-.247a.999.999 0 0 0-1.176.777l-.001.006a.999.999 0 0 0 .777 1.176l.006.001c.931.186 1.903.286 2.891.286 7.901 0 14.333-6.432 14.333-14.333 0-.975-.101-1.933-.286-2.862a1.001 1.001 0 0 0-1.184-.785l.006-.001z"/>
    </symbol>
    <symbol id="icon-quality" viewBox="0 0 32 32">
      <path d="M5.333 17.667a3.684 3.684 0 0 0-3.667 3.667v8a1 1 0 0 0 1 1h8.893a1 1 0 0 0 1-1V18.667a1 1 0 0 0-1-1zm0 2h5.227v8.667H3.667v-7c0-.921.745-1.667 1.667-1.667z"/>
      <path d="M14.214 12.333A3.684 3.684 0 0 0 10.547 16v13.333a1 1 0 0 0 1 1h8.893a1 1 0 0 0 1-1V16a3.682 3.682 0 0 0-3.667-3.667zm0 2h3.56A1.65 1.65 0 0 1 19.441 16v12.333h-6.893V16c0-.921.745-1.667 1.667-1.667z"/>
      <path d="M20.44 21.667a1 1 0 0 0-1 1v6.667a1 1 0 0 0 1 1h8.893a1 1 0 0 0 1-1v-4a3.684 3.684 0 0 0-3.667-3.667zm1 2h5.227c.921 0 1.667.745 1.667 1.667v3h-6.893zM15.992 1.193c-.761.005-1.293.557-1.581 1.133l-.654 1.307-1.159.195c-.628.102-1.304.453-1.534 1.161-.23.71.111 1.39.56 1.839l.904.901-.25 1.102a2.46 2.46 0 0 0-.044 1.018c.064.349.255.737.599.987s.771.313 1.122.268c.349-.044.654-.174.951-.349l.005-.003 1.081-.635 1.086.638c.297.176.603.304.953.349.351.045.779-.018 1.122-.268s.535-.638.599-.987a2.458 2.458 0 0 0-.044-1.018v-.005l-.253-1.094.909-.909c.459-.448.793-1.145.563-1.846s-.894-1.06-1.523-1.164h-.003l-1.159-.193-.654-1.307-.005-.005c-.29-.57-.83-1.12-1.591-1.115zm.011 2.422.492.982c.286.612.655.896 1.341.982l.807.135-.685.685c-.48.48-.638.97-.479 1.651v.005l.161.711-.724-.427c-.642-.401-1.204-.401-1.846 0l-.724.427.161-.711V8.05c.08-.343.042-.62-.036-.888a1.62 1.62 0 0 0-.474-.789l-.643-.646.849-.141a.39.39 0 0 0 .026-.003l-.005.001c.626-.117.973-.355 1.271-.951z"/>
    </symbol>
    <symbol id="icon-responsibility" viewBox="0 0 32 32">
      <path d="M16 1.667C8.099 1.667 1.667 8.099 1.667 16S8.099 30.333 16 30.333a1 1 0 0 0 0-2C9.181 28.333 3.667 22.819 3.667 16S9.181 3.667 16 3.667A12.323 12.323 0 0 1 28.333 16a1 1 0 0 0 2 0c0-7.901-6.432-14.333-14.333-14.333z"/>
      <path d="M10.667 3a1 1 0 0 0 0 2h.06a38.793 38.793 0 0 0 0 22h-.06a1 1 0 0 0 0 2H12a1 1 0 0 0 .946-1.325l.002.007a36.898 36.898 0 0 1 0-23.365A1 1 0 0 0 12 2.999zM19.685 3.052a1.003 1.003 0 0 0-.631 1.27l-.002-.007A37.064 37.064 0 0 1 20.948 16a1 1 0 0 0 2 0c0-4.161-.673-8.32-2-12.315a1.003 1.003 0 0 0-1.27-.631l.007-.002z"/>
      <path d="M4.315 19.052A1 1 0 0 0 3 20v1.333a1 1 0 0 0 2 0v-.063c3.594 1.057 7.288 1.677 11 1.677a1 1 0 0 0 0-2c-3.946 0-7.893-.636-11.685-1.896zM16 9.049c-4.16 0-8.322.668-12.318 2.003a1.003 1.003 0 0 0-.628 1.27l-.002-.007a1.002 1.002 0 0 0 1.273.63l-.007.002a36.898 36.898 0 0 1 23.365 0 1 1 0 0 0 1.264-.625l.002-.007a1.001 1.001 0 0 0-.623-1.261l-.007-.002a38.902 38.902 0 0 0-12.318-2.003zM26.844 19.234c-.83.085-1.45.556-1.938 1.044l-4.719 4.721c-.405.405-.595.784-.682 1.339a.065.065 0 0 0-.002.01l-.001.006-.253 1.799c-.082.582.088 1.21.51 1.633s1.052.594 1.635.51l1.797-.253.022-.004-.006.001c.549-.087.931-.242 1.365-.708l4.695-4.693c.488-.488.959-1.109 1.042-1.943s-.311-1.701-1.042-2.432c-.726-.726-1.594-1.117-2.424-1.031zm.205 1.99c.143-.015.344-.005.805.456.469.469.48.677.466.82s-.141.401-.466.727l-4.721 4.719-.025.027-.001.001c.085-.092-.24.094-.206.091h-.003l-1.651.234.234-1.651c-.007.047.152-.266.12-.234l4.719-4.721c.326-.326.586-.454.729-.469z"/>
      <path d="M24.667 20.703a1 1 0 0 0-.696 1.239l-.002-.007a5.255 5.255 0 0 0 3.656 3.656 1 1 0 0 0 1.23-.69l.002-.007a1.001 1.001 0 0 0-.688-1.228l-.007-.002a3.245 3.245 0 0 1-2.266-2.266 1.002 1.002 0 0 0-1.236-.693l.007-.002z"/>
    </symbol>
    <symbol id="icon-sms" viewBox="0 0 31 32">
      <path d="M8.96 4.16c-2.08 0-3.946.527-5.293 1.777S1.6 9.097 1.6 11.519v8.96c0 2.423.721 4.332 2.067 5.582s3.213 1.777 5.293 1.777h12.8c2.08 0 3.946-.527 5.293-1.777s2.067-3.16 2.067-5.582v-8.96c0-2.423-.721-4.332-2.067-5.582S23.841 4.16 21.76 4.16zm0 1.92h12.8c1.76 0 3.094.433 3.988 1.263s1.453 2.12 1.453 4.177v8.96c0 2.057-.559 3.348-1.453 4.177s-2.227 1.262-3.988 1.262H8.96c-1.76 0-3.094-.433-3.987-1.262s-1.452-2.12-1.452-4.178v-8.96c0-2.057.559-3.348 1.452-4.178S7.201 6.078 8.96 6.078z"/>
      <path d="M8.855 11.205a.965.965 0 0 0-.644.353l-.001.002a.956.956 0 0 0 .148 1.348l.002.001 3.992 3.2h.002c1.719 1.368 4.279 1.368 5.997 0l4.008-3.2a.957.957 0 0 0 .149-1.352l.001.002a.957.957 0 0 0-1.352-.149l.002-.001-4.005 3.2c-.918.73-2.681.729-3.6 0h-.003l-3.992-3.2a.956.956 0 0 0-.709-.205h.004z"/>
    </symbol>
    <symbol id="icon-greenenergy" viewBox="0 0 105 32">
<path fill="#97d28b" style="fill: var(--color1, #97d28b)" d="M7.004 14.471c-1.944 0-3.419-0.61-4.427-1.831s-1.511-2.809-1.511-4.764c0-0.901 0.113-1.736 0.338-2.507 0.237-0.782 0.581-1.481 1.031-2.098 0.462-0.628 1.079-1.12 1.849-1.476s1.653-0.533 2.649-0.533c1.363 0 2.477 0.32 3.342 0.96 0.865 0.628 1.458 1.541 1.778 2.738l-1.618 0.338c-0.533-1.695-1.695-2.542-3.484-2.542-1.339 0-2.382 0.456-3.129 1.369s-1.12 2.181-1.12 3.804c0 1.636 0.379 2.898 1.138 3.787 0.759 0.877 1.825 1.316 3.2 1.316 1.15 0 2.044-0.284 2.684-0.853 0.652-0.569 0.978-1.256 0.978-2.062v-1.333h-3.538v-1.351h5.084v2.418c0 1.316-0.456 2.418-1.369 3.307-0.913 0.877-2.204 1.316-3.876 1.316zM14.559 14.222v-12.693h4.658c1.339 0 2.388 0.326 3.147 0.978 0.759 0.64 1.138 1.535 1.138 2.684 0 0.924-0.255 1.695-0.764 2.311-0.51 0.604-1.233 1.001-2.169 1.191l3.093 5.529h-1.884l-2.809-5.298h-2.773v5.298h-1.636zM16.194 7.449h2.969c0.841 0 1.493-0.19 1.956-0.569 0.474-0.379 0.711-0.907 0.711-1.582 0-1.553-0.901-2.329-2.702-2.329h-2.933v4.48zM25.809 14.222v-12.693h8.569v1.44h-6.933v4.107h5.742v1.44h-5.742v4.267h6.951v1.44h-8.587zM36.557 14.222v-12.693h8.569v1.44h-6.933v4.107h5.742v1.44h-5.742v4.267h6.951v1.44h-8.587zM47.304 14.222v-12.693h1.973l5.831 8.693 0.96 1.529h0.178l-0.018-2.436v-7.787h1.582v12.693h-1.884l-5.636-8.338-1.227-1.884h-0.16l0.018 2.418v7.804h-1.618z"></path>
<path fill="#173d33" style="fill: var(--color2, #173d33)" d="M60.881 14.222v-12.693h8.569v1.44h-6.933v4.107h5.742v1.44h-5.742v4.267h6.951v1.44h-8.587zM71.628 14.222v-12.693h4.658c1.339 0 2.388 0.326 3.147 0.978 0.758 0.64 1.138 1.535 1.138 2.684 0 0.924-0.255 1.695-0.764 2.311-0.51 0.604-1.233 1.001-2.169 1.191l3.093 5.529h-1.884l-2.809-5.298h-2.773v5.298h-1.636zM73.264 7.449h2.969c0.841 0 1.493-0.19 1.956-0.569 0.474-0.379 0.711-0.907 0.711-1.582 0-1.553-0.901-2.329-2.702-2.329h-2.933v4.48zM87.999 14.471c-1.944 0-3.419-0.61-4.427-1.831s-1.511-2.809-1.511-4.764c0-0.901 0.113-1.736 0.338-2.507 0.237-0.782 0.581-1.481 1.031-2.098 0.462-0.628 1.078-1.12 1.849-1.476s1.653-0.533 2.649-0.533c1.363 0 2.477 0.32 3.342 0.96 0.865 0.628 1.458 1.541 1.778 2.738l-1.618 0.338c-0.533-1.695-1.695-2.542-3.484-2.542-1.339 0-2.382 0.456-3.129 1.369s-1.12 2.181-1.12 3.804c0 1.636 0.379 2.898 1.138 3.787 0.758 0.877 1.825 1.316 3.2 1.316 1.15 0 2.044-0.284 2.684-0.853 0.652-0.569 0.978-1.256 0.978-2.062v-1.333h-3.538v-1.351h5.084v2.418c0 1.316-0.456 2.418-1.369 3.307-0.913 0.877-2.204 1.316-3.876 1.316zM98.459 14.222v-4.498l-4.569-8.196h1.902l3.467 6.596 3.484-6.596h1.884l-4.533 8.196v4.498h-1.636zM1.884 30.222v-12.693h8.32v1.44h-6.684v4.409h5.547v1.458h-5.547v5.387h-1.636zM16.989 30.471c-1.884 0-3.36-0.634-4.427-1.902-1.055-1.268-1.582-2.839-1.582-4.711s0.539-3.437 1.618-4.693c1.090-1.268 2.554-1.902 4.391-1.902s3.301 0.634 4.391 1.902c1.090 1.268 1.636 2.833 1.636 4.693 0 1.873-0.533 3.443-1.6 4.711-1.055 1.268-2.53 1.902-4.427 1.902zM16.989 29.013c1.327 0 2.382-0.468 3.164-1.404 0.794-0.936 1.191-2.187 1.191-3.751 0-1.553-0.397-2.797-1.191-3.733-0.794-0.96-1.849-1.44-3.164-1.44-1.292 0-2.341 0.48-3.147 1.44-0.794 0.936-1.191 2.181-1.191 3.733 0 1.564 0.391 2.815 1.173 3.751 0.794 0.936 1.849 1.404 3.164 1.404zM25.219 30.222v-12.693h4.658c1.339 0 2.388 0.326 3.147 0.978 0.758 0.64 1.138 1.535 1.138 2.684 0 0.924-0.255 1.695-0.764 2.311-0.51 0.604-1.233 1.001-2.169 1.191l3.093 5.529h-1.884l-2.809-5.298h-2.773v5.298h-1.636zM26.855 23.449h2.969c0.841 0 1.493-0.19 1.956-0.569 0.474-0.379 0.711-0.907 0.711-1.582 0-1.553-0.901-2.329-2.702-2.329h-2.933v4.48zM40.55 30.222v-12.693h1.636v11.236h6.667v1.458h-8.302zM50.534 30.222v-12.693h1.636v12.693h-1.636zM55.239 30.222v-12.693h8.32v1.44h-6.684v4.409h5.547v1.458h-5.547v5.387h-1.636zM65.362 30.222v-12.693h8.569v1.44h-6.933v4.107h5.742v1.44h-5.742v4.267h6.951v1.44h-8.587z"></path>
</symbol>
  </defs>
</svg>
